<svg fill="#9F7239" width="9px" height="10px" viewBox="0 0 9 10" version="1.1" xmlns="http://www.w3.org/2000/svg" xmlns:xlink="http://www.w3.org/1999/xlink">
  <path d="M4.09090909,0 L4.09090909,2.72727273 C3.33779352,2.72727273 2.72727273,3.33779352 2.72727273,4.09090909 C2.72727273,4.84402466 3.33779352,5.45454545 4.09090909,5.45454545 L4.09090909,9.68636364 C3.97166369,9.68586154 3.8573912,9.63852007 3.77272727,9.55454545 L1.2,6.98181818 C0.031525622,5.81189008 -0.317771975,4.05358866 0.314798311,2.52587174 C0.947368597,0.998154827 2.43740916,0.00145436774 4.09090909,0 Z" id="Path"></path>
  <path d="M4.09090909,0 C5.74440902,0.00145436774 7.23444958,0.998154827 7.86701987,2.52587174 C8.49959016,4.05358866 8.15029256,5.81189008 6.98181818,6.98181818 L4.41363636,9.55454545 C4.32860389,9.64129802 4.2123845,9.69040481 4.09090909,9.69090909 L4.09090909,5.45454545 C4.84402466,5.45454545 5.45454545,4.84402466 5.45454545,4.09090909 C5.45454545,3.33779352 4.84402466,2.72727273 4.09090909,2.72727273 L4.09090909,0 Z" id="Path"></path>
</svg>